<svg width="150" height="33" viewBox="0 0 262 72" fill="none" xmlns="http://www.w3.org/2000/svg">
<path d="M52.7 4.39999C51.1667 6.6 49.3667 9.23333 47.3 12.3C45.3 15.3667 43.3667 18.6 41.5 22C39.7 25.4 38.1667 28.8 36.9 32.2C35.6333 35.6 35 38.7 35 41.5C35 44.0333 35.5333 46.0667 36.6 47.6C37.7333 49.0667 39.1333 50.2333 40.8 51.1C42.5333 51.9667 44.4333 52.5333 46.5 52.8C48.6333 53.0667 50.7 53.2 52.7 53.2V72C49.1667 72 45.7 71.7 42.3 71.1C38.9667 70.5 35.8333 69.5 32.9 68.1C29.9667 66.7 27.3 64.8667 24.9 62.6C22.5 60.3333 20.5 57.5 18.9 54.1V72H0.1V4.39999H18.9V26.9C20.1667 22.9 21.8 19.0333 23.8 15.3C25.8667 11.5667 28 7.93333 30.2 4.39999H52.7ZM90.7406 53.2V23.2H75.7406V53.2H90.7406ZM109.541 72H56.9406V4.39999H109.541V72ZM171.672 47.6C171.672 50.9333 171.005 54.1 169.672 57.1C168.405 60.0333 166.672 62.6 164.472 64.8C162.272 67 159.672 68.7667 156.672 70.1C153.739 71.3667 150.605 72 147.272 72H141.172V53.2C142.439 53.2 143.739 53.2667 145.072 53.4C146.472 53.4667 147.739 53.3667 148.872 53.1C150.072 52.8333 151.039 52.3 151.772 51.5C152.505 50.7 152.872 49.4 152.872 47.6V23.2H137.872V72H119.072V23.2H113.472V4.39999H171.672V47.6ZM198.086 4.5V0.699994H216.886V4.5H239.386V23.2H233.686V49.5C233.686 50.5 233.819 51.2667 234.086 51.8C234.419 52.3333 234.853 52.7333 235.386 53C235.919 53.2 236.519 53.3 237.186 53.3C237.853 53.3 238.586 53.3 239.386 53.3V72H231.886C228.019 72 224.953 71.2667 222.686 69.8C220.486 68.3333 218.786 66.4667 217.586 64.2C216.453 61.8667 215.719 59.2667 215.386 56.4C215.119 53.4667 214.986 50.5333 214.986 47.6H199.986V55.2C199.986 57.5333 199.519 59.7333 198.586 61.8C197.719 63.8 196.519 65.5667 194.986 67.1C193.453 68.6333 191.653 69.8333 189.586 70.7C187.519 71.5667 185.353 72 183.086 72H175.486V53.3C176.286 53.3 177.019 53.3 177.686 53.3C178.353 53.3 178.953 53.2 179.486 53C180.019 52.7333 180.419 52.3333 180.686 51.8C181.019 51.2667 181.186 50.5 181.186 49.5V23.2H175.486V4.5H198.086ZM214.986 28.9V23.2H199.986V28.9H214.986ZM261.762 53.2V72H242.962V53.2H261.762Z" fill="#E6007A"/>
</svg>
