<svg width="250" height="90" viewBox="0 0 96 24" fill="none" xmlns="http://www.w3.org/2000/svg"><path fill-rule="evenodd" clip-rule="evenodd" d="M60.0578 5.55372C61.7187 5.55372 63.1894 5.94024 64.4701 6.71329C65.7507 7.47616 66.7463 8.55944 67.4566 9.96313C68.167 11.3566 68.5222 12.9638 68.5222 14.7845C68.5222 16.595 68.167 18.2022 67.4566 19.6059C66.7463 20.9994 65.7507 22.0826 64.4701 22.8557C63.1894 23.6186 61.7187 24 60.0578 24C58.557 24 57.1963 23.6643 55.9757 22.993C54.7551 22.3217 53.7245 21.3655 52.8841 20.1246V23.4965H46.7459V0H52.8841V9.36809C53.7145 8.14749 54.745 7.20661 55.9757 6.54545C57.2063 5.8843 58.567 5.55372 60.0578 5.55372ZM58.1968 19.2244C58.9973 19.2244 59.7126 19.0362 60.3429 18.6599C60.9733 18.2734 61.4635 17.7444 61.8137 17.0731C62.1639 16.4018 62.339 15.6389 62.339 14.7845C62.339 13.9301 62.1639 13.1672 61.8137 12.4959C61.4635 11.8144 60.9733 11.2854 60.3429 10.9091C59.7126 10.5226 58.9973 10.3293 58.1968 10.3293C57.3864 10.3293 56.606 10.5226 55.8556 10.9091C55.1152 11.2854 54.4599 11.8144 53.8896 12.4959C53.3293 13.1672 52.9091 13.9301 52.629 14.7845C52.9091 15.6389 53.3293 16.4018 53.8896 17.0731C54.4599 17.7444 55.1152 18.2734 55.8556 18.6599C56.606 19.0362 57.3864 19.2244 58.1968 19.2244Z" fill="white"></path><path d="M19.6152 21.1926C20.4156 20.267 20.8158 19.138 20.8158 17.8055C20.8158 16.7374 20.5706 15.8373 20.0804 15.1049C19.5901 14.3624 18.7697 13.7673 17.6191 13.3198C16.4685 12.8722 14.9227 12.5772 12.9817 12.4348L9.00466 12.1297C8.05417 12.0585 7.39883 11.9263 7.03864 11.733C6.67846 11.5397 6.49836 11.2549 6.49836 10.8786C6.49836 10.4412 6.78351 10.1055 7.35381 9.87158C7.93411 9.62746 8.76954 9.5054 9.8601 9.5054C11.1708 9.5054 12.1863 9.70375 12.9067 10.1004C13.6271 10.4971 14.0673 11.0006 14.2274 11.6109H20.4556C20.3255 10.4209 19.8053 9.36809 18.8948 8.45264C17.9943 7.53719 16.7837 6.82517 15.2629 6.31659C13.7521 5.80801 12.0462 5.55372 10.1453 5.55372C8.19424 5.55372 6.49336 5.7775 5.04261 6.22505C3.59186 6.66243 2.46628 7.32358 1.66586 8.20852C0.875453 9.08328 0.480248 10.1615 0.480248 11.4431C0.480248 13.0197 1.10557 14.2606 2.35622 15.1659C3.60687 16.0712 5.69795 16.6357 8.62947 16.8595L11.661 17.0884C12.4514 17.1494 13.0718 17.2359 13.522 17.3477C13.9822 17.4495 14.3124 17.5868 14.5125 17.7597C14.7226 17.9224 14.8277 18.1411 14.8277 18.4158C14.8277 18.8938 14.5125 19.2549 13.8822 19.499C13.2619 19.7432 12.3364 19.8652 11.1057 19.8652C9.72503 19.8652 8.61446 19.672 7.77402 19.2854C6.94359 18.8989 6.42833 18.3497 6.22822 17.6376H0C0.0600311 18.8989 0.545282 20.0127 1.45575 20.979C2.36622 21.9352 3.62688 22.6777 5.23771 23.2066C6.85855 23.7355 8.72952 24 10.8506 24C12.9217 24 14.7026 23.7661 16.1934 23.2982C17.6842 22.8201 18.8247 22.1182 19.6152 21.1926Z" fill="white"></path><path d="M38.0161 23.4965H44.1393L43.0287 17.4851V6.05722H36.8905V14.4488C36.8905 15.8627 36.5403 16.9612 35.84 17.7444C35.1496 18.5175 34.1691 18.904 32.8984 18.904C31.7478 18.904 30.8624 18.5633 30.2421 17.8818C29.6317 17.1901 29.3266 16.1983 29.3266 14.9065V6.05722H23.1884V15.8067C23.1884 17.4647 23.4886 18.9091 24.0889 20.1399C24.6892 21.3706 25.5596 22.3217 26.7002 22.993C27.8408 23.6542 29.2015 23.9847 30.7823 23.9847C32.1831 23.9847 33.4587 23.6389 34.6093 22.9472C35.7599 22.2454 36.7004 21.2282 37.4308 19.8957L38.0161 23.4965Z" fill="white"></path><path fill-rule="evenodd" clip-rule="evenodd" d="M76.715 22.52C78.626 23.5067 80.8472 24 83.3785 24C85.9098 24 88.1259 23.5067 90.0269 22.52C91.9379 21.5232 93.4087 20.1246 94.4392 18.3242C95.4797 16.5137 96 14.4234 96 12.0534C96 9.68341 95.4797 7.59822 94.4392 5.79784C93.4087 3.98729 91.9379 2.58868 90.0269 1.60203C88.1259 0.605213 85.9098 0.106802 83.3785 0.106802C80.8472 0.106802 78.626 0.605213 76.715 1.60203C74.814 2.58868 73.3433 3.98729 72.3027 5.79784C71.2622 7.59822 70.7419 9.68341 70.7419 12.0534C70.7419 14.4234 71.2622 16.5137 72.3027 18.3242C73.3433 20.1246 74.814 21.5232 76.715 22.52ZM86.8303 18.0648C85.8698 18.5938 84.7192 18.8582 83.3785 18.8582C82.7099 18.8582 82.0874 18.7925 81.5109 18.661L88.1802 7.10941C88.517 7.47833 88.8024 7.90064 89.0364 8.37635C89.5467 9.39352 89.8018 10.6192 89.8018 12.0534C89.8018 13.4876 89.5467 14.7133 89.0364 15.7305C88.5361 16.7476 87.8008 17.5257 86.8303 18.0648ZM85.3379 5.4727L78.6388 17.0759C78.2715 16.6871 77.9604 16.2386 77.7055 15.7305C77.2053 14.7133 76.9551 13.4876 76.9551 12.0534C76.9551 10.6192 77.2053 9.39352 77.7055 8.37635C78.2158 7.35919 78.9512 6.58614 79.9117 6.05722C80.8822 5.51812 82.0378 5.24857 83.3785 5.24857C84.0843 5.24857 84.7374 5.32328 85.3379 5.4727Z" fill="white"></path></svg>