<svg width="160" height="43" viewBox="0 0 900 324" fill="none" xmlns="http://www.w3.org/2000/svg">
<g clip-path="url(#clip0_704_990)">
<path fill-rule="evenodd" clip-rule="evenodd" d="M563.043 101.566C578.614 101.566 592.402 105.19 604.409 112.437C616.414 119.589 625.748 129.745 632.407 142.904C639.067 155.968 642.397 171.036 642.397 188.105C642.397 205.078 639.067 220.146 632.407 233.305C625.748 246.369 616.414 256.524 604.409 263.772C592.402 270.924 578.614 274.5 563.043 274.5C548.973 274.5 536.217 271.353 524.774 265.059C513.33 258.766 503.669 249.802 495.79 238.168V269.78H438.244V49.5H495.79V137.326C503.575 125.883 513.236 117.062 524.774 110.864C536.31 104.665 549.067 101.566 563.043 101.566ZM545.596 229.729C553.101 229.729 559.807 227.964 565.716 224.437C571.626 220.813 576.222 215.854 579.505 209.56C582.788 203.267 584.429 196.115 584.429 188.105C584.429 180.095 582.788 172.943 579.505 166.649C576.222 160.26 571.626 155.301 565.716 151.773C559.807 148.149 553.101 146.337 545.596 146.337C537.999 146.337 530.683 148.149 523.648 151.773C516.706 155.301 510.563 160.26 505.216 166.649C499.964 172.943 496.024 180.095 493.398 188.105C496.024 196.115 499.964 203.267 505.216 209.56C510.563 215.854 516.706 220.813 523.648 224.437C530.683 227.964 537.999 229.729 545.596 229.729Z" fill="#8F00FF"/>
<path d="M183.893 248.181C191.396 239.503 195.148 228.919 195.148 216.427C195.148 206.413 192.849 197.975 188.254 191.109C183.657 184.148 175.966 178.569 165.179 174.373C154.392 170.177 139.9 167.412 121.703 166.077L84.4187 163.216C75.5078 162.549 69.364 161.309 65.9873 159.497C62.6106 157.685 60.9221 155.015 60.9221 151.487C60.9221 147.387 63.5954 144.239 68.942 142.046C74.3823 139.758 82.2144 138.613 92.4384 138.613C104.726 138.613 114.247 140.473 121 144.192C127.754 147.911 131.881 152.631 133.382 158.352H191.771C190.552 147.196 185.675 137.326 177.139 128.744C168.697 120.161 157.347 113.486 143.09 108.718C128.926 103.95 112.933 101.566 95.1122 101.566C76.821 101.566 60.8753 103.664 47.2745 107.86C33.6737 111.961 23.1214 118.159 15.6174 126.455C8.20737 134.656 4.50233 144.764 4.50233 156.779C4.50233 171.56 10.3647 183.193 22.0896 191.681C33.8144 200.168 53.4183 205.46 80.9013 207.558L109.322 209.704C116.732 210.276 122.548 211.087 126.769 212.135C131.083 213.089 134.179 214.377 136.055 215.997C138.024 217.523 139.01 219.573 139.01 222.148C139.01 226.63 136.055 230.015 130.146 232.303C124.33 234.593 115.654 235.737 104.116 235.737C91.1722 235.737 80.7606 233.925 72.8814 230.301C65.0962 226.677 60.2656 221.529 58.3896 214.853H0C0.562792 226.677 5.11202 237.119 13.6477 246.178C22.1833 255.143 34.002 262.104 49.1035 267.062C64.2989 272.021 81.8393 274.5 101.724 274.5C121.141 274.5 137.837 272.307 151.813 267.921C165.789 263.439 176.482 256.858 183.893 248.181Z" fill="#8F00FF"/>
<path d="M356.402 269.779H413.807L403.395 213.423V106.286H345.85V184.957C345.85 198.213 342.567 208.511 336.001 215.853C329.529 223.101 320.337 226.725 308.424 226.725C297.637 226.725 289.336 223.531 283.521 217.142C277.799 210.657 274.938 201.359 274.938 189.248V106.286H217.393V197.688C217.393 213.231 220.207 226.773 225.835 238.311C231.463 249.849 239.623 258.766 250.316 265.059C261.009 271.258 273.765 274.356 288.585 274.356C301.718 274.356 313.677 271.114 324.464 264.63C335.25 258.05 344.068 248.514 350.915 236.022L356.402 269.779Z" fill="#8F00FF"/>
<path fill-rule="evenodd" clip-rule="evenodd" d="M719.207 260.625C737.122 269.875 757.946 274.5 781.677 274.5C805.408 274.5 826.184 269.875 844.006 260.625C861.922 251.28 875.71 238.168 885.371 221.289C895.126 204.316 900.004 184.719 900.004 162.5C900.004 140.282 895.126 120.733 885.371 103.854C875.71 86.8805 861.922 73.7686 844.006 64.5187C826.184 55.1736 805.408 50.501 781.677 50.501C757.946 50.501 737.122 55.1736 719.207 64.5187C701.385 73.7686 687.597 86.8805 677.841 103.854C668.087 120.733 663.209 140.282 663.209 162.5C663.209 184.719 668.087 204.316 677.841 221.289C687.597 238.168 701.385 251.28 719.207 260.625ZM814.038 218.857C805.033 223.817 794.246 226.295 781.677 226.295C775.409 226.295 769.573 225.679 764.168 224.447L826.693 116.15C829.851 119.609 832.526 123.568 834.72 128.028C839.504 137.564 841.896 149.055 841.896 162.5C841.896 175.946 839.504 187.437 834.72 196.973C830.03 206.508 823.136 213.803 814.038 218.857ZM800.047 100.806L737.242 209.586C733.799 205.941 730.882 201.737 728.493 196.973C723.803 187.437 721.458 175.946 721.458 162.5C721.458 149.055 723.803 137.564 728.493 128.028C733.277 118.492 740.171 111.245 749.176 106.286C758.274 101.232 769.108 98.705 781.677 98.705C788.294 98.705 794.417 99.4055 800.047 100.806Z" fill="#8F00FF"/>
</g>
<defs>
<clipPath id="clip0_704_990">
<rect width="900" height="324" fill="white"/>
</clipPath>
</defs>
</svg>
